<?xml version="1.0" encoding="UTF-8"?>
<svg width="375px" height="20px" viewBox="0 0 375 20" version="1.1" xmlns="http://www.w3.org/2000/svg" xmlns:xlink="http://www.w3.org/1999/xlink">
    <!-- Generator: Sketch 46.2 (44496) - http://www.bohemiancoding.com/sketch -->
    <title>status</title>
    <desc>Created with Sketch.</desc>
    <defs></defs>
    <g id="Page-1" stroke="none" stroke-width="1" fill="none" fill-rule="evenodd">
        <g id="Artboard" transform="translate(-69.000000, -93.000000)">
            <g id="status" transform="translate(69.000000, 93.000000)">
                <rect id="Background" fill="#000000" x="0" y="0" width="375" height="20"></rect>
                <path d="M9.25,13 C7.73121694,13 6.5,11.7687831 6.5,10.25 C6.5,8.73121694 7.73121694,7.5 9.25,7.5 C10.7687831,7.5 12,8.73121694 12,10.25 C12,11.7687831 10.7687831,13 9.25,13 Z M16.25,13 C14.7312169,13 13.5,11.7687831 13.5,10.25 C13.5,8.73121694 14.7312169,7.5 16.25,7.5 C17.7687831,7.5 19,8.73121694 19,10.25 C19,11.7687831 17.7687831,13 16.25,13 Z M23.25,13 C21.7312169,13 20.5,11.7687831 20.5,10.25 C20.5,8.73121694 21.7312169,7.5 23.25,7.5 C24.7687831,7.5 26,8.73121694 26,10.25 C26,11.7687831 24.7687831,13 23.25,13 Z M30.25,13 C28.7312169,13 27.5,11.7687831 27.5,10.25 C27.5,8.73121694 28.7312169,7.5 30.25,7.5 C31.7687831,7.5 33,8.73121694 33,10.25 C33,11.7687831 31.7687831,13 30.25,13 Z M30.25,12.5 C31.4926407,12.5 32.5,11.4926407 32.5,10.25 C32.5,9.00735931 31.4926407,8 30.25,8 C29.0073593,8 28,9.00735931 28,10.25 C28,11.4926407 29.0073593,12.5 30.25,12.5 Z M37.25,13 C35.7312169,13 34.5,11.7687831 34.5,10.25 C34.5,8.73121694 35.7312169,7.5 37.25,7.5 C38.7687831,7.5 40,8.73121694 40,10.25 C40,11.7687831 38.7687831,13 37.25,13 Z M37.25,12.5 C38.4926407,12.5 39.5,11.4926407 39.5,10.25 C39.5,9.00735931 38.4926407,8 37.25,8 C36.0073593,8 35,9.00735931 35,10.25 C35,11.4926407 36.0073593,12.5 37.25,12.5 Z" id="Mobile-Signal" fill="#FFFFFF"></path>
                <text id="Carrier" font-family=".SFNSText, .SF NS Text" font-size="12" font-weight="normal" letter-spacing="0.200000003" fill="#FFFFFF">
                    <tspan x="44" y="15.5">Sketch</tspan>
                </text>
                <path d="M96.1444208,12.4385043 L94.0225391,14.5 L91.8601652,12.4053177 C92.3778594,11.8314341 93.1390073,11.4689119 93.987563,11.4689119 C94.8523616,11.4689119 95.626374,11.8454456 96.1444208,12.4385043 Z M98.3234964,10.3214425 L98.3234964,10.3214425 L97.2346215,11.3793293 C96.4356305,10.518235 95.2768836,9.97668394 93.987563,9.97668394 C92.713648,9.97668394 91.567205,10.5053708 90.7692987,11.3486 L89.6792698,10.2926936 C90.7566264,9.17975893 92.2882723,8.48445596 93.987563,8.48445596 C95.7014387,8.48445596 97.2447794,9.19174563 98.3234964,10.3214425 Z M100.5,8.20687933 L99.4118698,9.26404272 C98.0538809,7.86552609 96.1260026,6.99222798 93.987563,6.99222798 C91.8628921,6.99222798 89.9460798,7.85431655 88.5895579,9.23709441 L87.5,8.18164431 C89.1355496,6.52895605 91.4375103,5.5 93.987563,5.5 C96.5505699,5.5 98.8629578,6.53943672 100.5,8.20687933 Z" id="Wi-Fi" fill="#FFFFFF"></path>
                <text id="9:41-AM" font-family=".SFNSText, .SF NS Text" font-size="12" font-weight="normal" letter-spacing="0.100000001" fill="#FFFFFF">
                    <tspan x="164.464453" y="16">9:41 AM</tspan>
                </text>
                <text id="100%" font-family=".SFNSText, .SF NS Text" font-size="12" font-weight="normal" fill="#FFFFFF">
                    <tspan x="310.853516" y="15.5">100%</tspan>
                </text>
                <path d="M345.493713,5.5 L365.006287,5.5 C365.82662,5.5 366.5,6.17394722 366.5,7.00530324 L366.5,13.4946968 C366.5,14.3319784 365.831242,15 365.006287,15 L345.493713,15 C344.67338,15 344,14.3260528 344,13.4946968 L344,7.00530324 C344,6.16802155 344.668758,5.5 345.493713,5.5 Z M367,8.5 L367.75,8.5 C368.167101,8.5 368.5,8.83232111 368.5,9.24225998 L368.5,11.25774 C368.5,11.6644053 368.164214,12 367.75,12 L367,12 L367,8.5 Z M345.508152,6 C344.951365,6 344.5,6.45699692 344.5,7.00844055 L344.5,13.4915594 C344.5,14.0485058 344.949058,14.5 345.508152,14.5 L364.991848,14.5 C365.548635,14.5 366,14.0430031 366,13.4915594 L366,7.00844055 C366,6.45149422 365.550942,6 364.991848,6 L345.508152,6 Z M345.506744,6.5 L364.993256,6.5 C365.269775,6.5 365.5,6.72031886 365.5,6.99209595 L365.5,13.5079041 C365.5,13.783628 365.273123,14 364.993256,14 L345.506744,14 C345.230225,14 345,13.7796811 345,13.5079041 L345,6.99209595 C345,6.71637201 345.226877,6.5 345.506744,6.5 Z" id="Battery" fill="#FFFFFF"></path>
            </g>
        </g>
    </g>
</svg>